Coordinates
version=1
nRows=10
nColumns=40
inDegrees=yes

Units are S.I. units (second, meters, Newtons, ...)
Angles are in degrees.

endheader
time	pelvis_tilt	pelvis_list	pelvis_rotation	pelvis_tx	pelvis_ty	pelvis_tz	hip_flexion_r	hip_adduction_r	hip_rotation_r	knee_angle_r	knee_angle_r_beta	ankle_angle_r	subtalar_angle_r	mtp_angle_r	hip_flexion_l	hip_adduction_l	hip_rotation_l	knee_angle_l	knee_angle_l_beta	ankle_angle_l	subtalar_angle_l	mtp_angle_l	lumbar_extension	lumbar_bending	lumbar_rotation	arm_flex_r	arm_add_r	arm_rot_r	elbow_flex_r	pro_sup_r	wrist_flex_r	wrist_dev_r	arm_flex_l	arm_add_l	arm_rot_l	elbow_flex_l	pro_sup_l	wrist_flex_l	wrist_dev_l
     25.69250000	     -2.61632746	     -2.08688411	     -2.98685828	      1.09068476	      0.93561486	      0.43276364	     35.82739397	     -6.58077593	     -3.49098239	     63.05709115	     63.05709115	      1.94692249	    -16.19587082	      2.45374504	      7.74614360	     -1.38099584	    -10.30015720	     15.65691685	     15.65691685	     12.42995799	    -11.61511026	     -5.18913377	    -10.06765696	      5.02185890	      2.26636333	     -0.17968587	    -12.98651472	     -9.51680613	     35.95891969	     46.66274415	      0.00000000	      0.00000000	     22.47612357	    -13.78524987	      3.47483753	     42.03228572	     46.24512951	      0.00000000	      0.00000000
     25.70385714	     -2.58878549	     -2.14401207	     -3.09755419	      1.09031791	      0.93559014	      0.43291345	     36.00493790	     -6.46524958	     -3.81762926	     59.40792921	     59.40792921	      1.58421819	    -15.97053286	      1.80335280	      6.78112651	     -1.35583328	    -10.38086091	     15.07163892	     15.07163892	     12.64239943	    -11.46773034	     -5.61670607	    -10.07836647	      5.17334062	      1.43978545	      0.78209248	    -12.38105551	    -11.21044302	     28.02187539	     47.06213094	      0.00000000	      0.00000000	     22.79531051	    -14.79052773	      2.57702374	     45.66363078	     46.36308084	      0.00000000	      0.00000000
     25.71521429	     -2.50449621	     -2.28780901	     -3.23457512	      1.09002433	      0.93553997	      0.43320205	     35.91227350	     -6.22029082	     -4.25688971	     55.38322759	     55.38322759	      1.44680938	    -15.40320713	      2.10300935	      5.76362786	     -1.42823068	    -10.46772498	     14.54133054	     14.54133054	     12.99908569	    -11.28212160	     -5.65343805	    -10.27355496	      5.46327934	      1.86295337	     -1.16450013	    -12.52549541	    -11.50536288	     26.25760113	     47.13684630	      0.00000000	      0.00000000	     24.39586070	    -14.84416314	      2.14956615	     47.44075837	     46.43768922	      0.00000000	      0.00000000
     25.72657143	     -2.47954914	     -2.39946297	     -3.36339943	      1.08977664	      0.93522568	      0.43360990	     35.69081009	     -5.98296671	     -4.78011823	     51.02659823	     51.02659823	      1.16709072	    -14.53243998	      2.06122053	      4.82734596	     -1.48316797	    -10.57222447	     14.04811903	     14.04811903	     13.34410019	    -11.04532095	     -5.78811156	    -10.41379487	      5.67259379	      2.25084392	     -2.81038814	    -12.55927131	    -11.93044098	     23.87263134	     47.25784166	      0.00000000	      0.00000000	     25.77370236	    -14.94902894	      1.67948603	     49.77593759	     46.51922935	      0.00000000	      0.00000000
     25.73792857	     -2.54716014	     -2.54145006	     -3.43549827	      1.08961907	      0.93464203	      0.43408757	     35.24469677	     -5.69361102	     -5.48166178	     46.14094930	     46.14094930	      0.15881964	    -13.66519936	      0.08227092	      4.04940194	     -1.60012326	    -10.65863191	     13.66058401	     13.66058401	     13.63633739	    -10.82597395	     -6.13449577	    -10.40558288	      5.91969517	      1.43955759	     -2.76209995	    -12.37733631	    -13.88907299	     19.41047036	     47.65887522	      0.00000000	      0.00000000	     25.71247706	    -15.98880370	      0.56833741	     53.95090316	     46.66990698	      0.00000000	      0.00000000
     25.74928571	     -2.57346409	     -2.70482822	     -3.51399672	      1.08962782	      0.93393216	      0.43470724	     34.63350366	     -5.31978219	     -6.23112795	     41.22332562	     41.22332562	     -0.03933619	    -11.98423252	      0.55009396	      3.24642576	     -1.74252364	    -10.71209988	     13.34510002	     13.34510002	     14.02190472	    -10.67813845	     -6.25155604	    -10.44722506	      6.20408730	      1.72883522	     -4.65900409	    -12.49861214	    -14.14018195	     18.35226086	     47.72028895	      0.00000000	      0.00000000	     27.17502528	    -16.07705396	      0.23204337	     55.45949151	     46.73043312	      0.00000000	      0.00000000
     25.76064286	     -2.61082267	     -2.85225364	     -3.58905027	      1.08984511	      0.93303069	      0.43548163	     33.84645084	     -4.90370506	     -7.07059966	     36.15094722	     36.15094722	     -0.32701159	     -9.90512617	      1.01731562	      2.43398173	     -1.88267412	    -10.80350553	     13.02173545	     13.02173545	     14.42159366	    -10.45934718	     -6.42024513	    -10.44924967	      6.43098599	      2.02380209	     -6.53497261	    -12.56194002	    -14.39092328	     17.34325611	     47.78322845	      0.00000000	      0.00000000	     28.46462837	    -16.16702013	     -0.07929439	     57.32805366	     46.79188671	      0.00000000	      0.00000000
     25.77200000	     -2.54729840	     -2.87433231	     -3.70130169	      1.09037982	      0.93195789	      0.43641366	     32.85505029	     -4.58048279	     -7.99675403	     31.16305782	     31.16305782	     -0.65031787	     -7.28259790	      1.33386461	      1.47344846	     -1.89479185	    -11.06019176	     12.66574816	     12.66574816	     14.84378277	    -10.05767001	     -6.67099461	    -10.57624004	      6.44996094	      2.40598195	     -8.40942495	    -12.51558377	    -14.85762201	     16.43021783	     47.87783511	      0.00000000	      0.00000000	     29.50566445	    -16.28125530	     -0.45074990	     60.14876786	     46.87200539	      0.00000000	      0.00000000
     25.78335714	     -2.55235806	     -2.92246564	     -3.75252135	      1.09122514	      0.93057785	      0.43745022	     31.80830756	     -4.15717131	     -8.98827431	     26.29757922	     26.29757922	     -0.94076274	     -4.60870936	      1.99905884	      0.62268863	     -1.96632314	    -11.31271204	     12.41521774	     12.41521774	     15.33551374	     -9.57877953	     -6.94571671	    -10.57154188	      6.53221878	      2.11574153	     -9.99692043	    -12.48380134	    -16.10416715	     16.16878798	     48.06955520	      0.00000000	      0.00000000	     29.66064900	    -17.00540247	     -1.04620016	     63.93957266	     46.98838405	      0.00000000	      0.00000000
     25.79471429	     -2.52183070	     -2.95717905	     -3.82903990	      1.09234164	      0.92903040	      0.43869929	     30.77777855	     -3.68316058	     -9.90962311	     21.98197586	     21.98197586	     -0.70126949	     -1.86367399	      4.34672603	     -0.27363194	     -2.02643717	    -11.53946858	     12.20159724	     12.20159724	     15.89173151	     -9.15660210	     -7.01738796	    -10.57420042	      6.56465824	      2.10954055	    -11.74502803	    -12.34675076	    -18.02044900	     16.21376970	     48.33952475	      0.00000000	      0.00000000	     30.20061730	    -17.48735465	     -1.64562835	     66.84270252	     47.11868284	      0.00000000	      0.00000000
